# xmcd CD database file
#
# Track frame offsets:
#	150
#	12509
#	26931
#	41688
#	55905
#	69114
#	84026
#	98974
#	113791
#	118635
#	127898
#	138795
#	157039
#	166455
#	186468
#	199818
#	214334
#
# Disc length: 3012 seconds
#
# Revision: 0
# Processed by: cddbd v1.5.2PL0 Copyright (c) Steve Scherf et al.
# Submitted via: CDex 1.51
#
DISCID=ed0bc211
DTITLE=Bobby Mackey - Foolin' Around
DYEAR=2008
DGENRE=Country
TTITLE0=Foolin' Around
TTITLE1=Your Cheatin' Heart
TTITLE2=Lovin' On Back Streets
TTITLE3=Our Conscience You and Me
TTITLE4=Swingin' Doors
TTITLE5=She's Mine
TTITLE6=You're Welcome Anytime
TTITLE7=I Never Stopped Lovin' You
TTITLE8=Stihl Jingle
TTITLE9=Buckaroo
TTITLE10=Jukebox Charlie
TTITLE11=Somewhere Between
TTITLE12=Love's Gonna Live Here
TTITLE13=Another Bridge To Burn
TTITLE14=Under Your Spell Again
TTITLE15=Image Of Me
TTITLE16=Only Daddy
EXTD=YEAR: 2008
EXTT0=
EXTT1=
EXTT2=
EXTT3=
EXTT4=
EXTT5=
EXTT6=
EXTT7=
EXTT8=
EXTT9=
EXTT10=
EXTT11=
EXTT12=
EXTT13=
EXTT14=
EXTT15=
EXTT16=
PLAYORDER=
